<svg width="100" height="73" viewBox="0 0 100 73" fill="none" xmlns="http://www.w3.org/2000/svg">
<path d="M20.0712 66.5755C8.98859 51.2748 12.4081 29.8869 27.7088 18.8043V18.8043C30.769 16.5878 35.0465 17.2717 37.2631 20.3319L51.4638 39.9376C54.7035 44.4104 53.7039 50.6626 49.2311 53.9023L24.0845 72.1164L20.0712 66.5755Z" fill="url(#paint0_linear_2230_353)"/>
<path d="M47.8006 32.7042C44.5609 28.2314 45.5605 21.9792 50.0333 18.7394L75.1821 0.523722L79.1957 6.06498C90.2791 21.3667 86.8593 42.7561 71.5576 53.8394V53.8394C68.4972 56.0561 64.2194 55.3721 62.0027 52.3118L47.8006 32.7042Z" fill="url(#paint1_linear_2230_353)"/>
<defs>
<linearGradient id="paint0_linear_2230_353" x1="16.627" y1="26.831" x2="40.7072" y2="60.0763" gradientUnits="userSpaceOnUse">
<stop stop-color="#E100FF" stop-opacity="0.5"/>
<stop offset="0.51" stop-color="#AA00FF" stop-opacity="0.5"/>
<stop offset="1" stop-color="#7F00FF" stop-opacity="0.64"/>
</linearGradient>
<linearGradient id="paint1_linear_2230_353" x1="58.5583" y1="12.5646" x2="82.6401" y2="45.8121" gradientUnits="userSpaceOnUse">
<stop stop-color="#E100FF" stop-opacity="0.5"/>
<stop offset="0.51" stop-color="#AA00FF" stop-opacity="0.5"/>
<stop offset="1" stop-color="#7F00FF" stop-opacity="0.64"/>
</linearGradient>
</defs>
</svg>
